<svg xmlns="http://www.w3.org/2000/svg" xmlns:xlink="http://www.w3.org/1999/xlink" transform="matrix(1, 0, 0, 1, 0, 0)" id="_0011_handshake" viewBox="0 0 500 500" class="show_show__wrapper__graphic__5Waiy "><title>React</title><defs fill="#000000"><style>.cls-1{fill:#000405;opacity:.05;}.cls-1,.cls-2,.cls-3,.cls-4,.cls-5,.cls-6,.cls-7,.cls-8,.cls-9,.cls-10,.cls-11,.cls-12,.cls-13,.cls-14,.cls-15,.cls-16,.cls-17,.cls-18,.cls-19,.cls-20,.cls-21,.cls-22,.cls-23{stroke-width:0px;}.cls-1,.cls-3,.cls-11,.cls-12,.cls-19{isolation:isolate;}.cls-2{fill:url(#linear-gradient);}.cls-3{opacity:.18;}.cls-3,.cls-23{fill:#fdbf2e;}.cls-4{fill:url(#linear-gradient-11);}.cls-5{fill:url(#linear-gradient-12);}.cls-6{fill:url(#linear-gradient-13);}.cls-7{fill:url(#linear-gradient-10);}.cls-8{fill:url(#linear-gradient-16);}.cls-9{fill:url(#linear-gradient-15);}.cls-10{fill:url(#linear-gradient-14);}.cls-11{fill:url(#linear-gradient-5);opacity:.61;}.cls-12{fill:url(#linear-gradient-3);opacity:.51;}.cls-13{fill:url(#linear-gradient-4);}.cls-14{fill:url(#linear-gradient-2);}.cls-15{fill:url(#linear-gradient-8);}.cls-16{fill:url(#linear-gradient-9);}.cls-17{fill:url(#linear-gradient-7);}.cls-18{fill:url(#linear-gradient-6);}.cls-19{opacity:.24;}.cls-19,.cls-21{fill:#fff;}.cls-20{fill:#231f20;}.cls-22{fill:#ffaa71;}</style><linearGradient id="linear-gradient" x1="80" y1="241.85" x2="100.42" y2="228.82" gradientUnits="userSpaceOnUse" fill="#000000"><stop offset="0" stop-color="#231f20" stop-opacity="0" fill="#000000"/><stop offset="1" stop-color="#231f20" fill="#000000"/></linearGradient><linearGradient id="linear-gradient-2" x1="92.78" y1="228.86" x2="-4.31" y2="260.13" xlink:href="#linear-gradient" fill="#000000"/><linearGradient id="linear-gradient-3" x1="-312.17" y1="1528.31" x2="-351.89" y2="1499.56" gradientTransform="translate(409 1782.94) scale(1 -1)" gradientUnits="userSpaceOnUse" fill="#000000"><stop offset="0" stop-color="#fff" stop-opacity="0" fill="#000000"/><stop offset="1" stop-color="#3f3d56" fill="#000000"/></linearGradient><linearGradient id="linear-gradient-4" x1="-60.5" y1="271.34" x2="1051.1" y2="662.29" xlink:href="#linear-gradient" fill="#000000"/><linearGradient id="linear-gradient-5" x1="-474.01" y1="1231.9" x2="-176.71" y2="1112.98" gradientTransform="translate(409 1530.93) scale(1 -1)" gradientUnits="userSpaceOnUse" fill="#000000"><stop offset=".17" stop-color="#00272e" fill="#000000"/><stop offset="1" stop-color="#fdbf2e" stop-opacity="0" fill="#000000"/></linearGradient><linearGradient id="linear-gradient-6" x1="-232.62" y1="-628.35" x2="-294.92" y2="-606.76" gradientTransform="translate(409 860.49)" xlink:href="#linear-gradient" fill="#000000"/><linearGradient id="linear-gradient-7" x1="-229.71" y1="-588.26" x2="-205.12" y2="-647.73" gradientTransform="translate(409 860.49)" xlink:href="#linear-gradient" fill="#000000"/><linearGradient id="linear-gradient-8" x1="-224.74" y1="-673.5" x2="-227.52" y2="-648.36" gradientTransform="translate(409 860.5)" gradientUnits="userSpaceOnUse" fill="#000000"><stop offset="0" stop-color="#000" stop-opacity="0" fill="#000000"/><stop offset=".44" stop-color="#000" stop-opacity=".35" fill="#000000"/><stop offset=".91" stop-color="#000" stop-opacity=".8" fill="#000000"/><stop offset="1" stop-color="#000" fill="#000000"/></linearGradient><linearGradient id="linear-gradient-9" x1="-245.03" y1="1203.52" x2="-244.8" y2="1203.52" gradientTransform="translate(409 1475.6) scale(1 -1)" gradientUnits="userSpaceOnUse" fill="#000000"><stop offset="0" stop-color="#fdbf2e" fill="#000000"/><stop offset="1" stop-color="#fdbf2e" fill="#000000"/></linearGradient><linearGradient id="linear-gradient-10" x1="-231.86" y1="1094.61" x2="-255.9" y2="1084" gradientTransform="translate(409 1475.6) scale(1 -1)" xlink:href="#linear-gradient" fill="#000000"/><linearGradient id="linear-gradient-11" x1="-193.71" y1="1095.08" x2="-214.72" y2="1081" gradientTransform="translate(409 1475.6) scale(1 -1)" xlink:href="#linear-gradient" fill="#000000"/><linearGradient id="linear-gradient-12" x1="-103.56" y1="-615.38" x2="-75.65" y2="-597.77" gradientTransform="translate(409 860.49)" xlink:href="#linear-gradient" fill="#000000"/><linearGradient id="linear-gradient-13" x1="-107.56" y1="-666.57" x2="-108.39" y2="-513.22" gradientTransform="translate(409 860.5)" xlink:href="#linear-gradient" fill="#000000"/><linearGradient id="linear-gradient-14" x1="-118.04" y1="-666.62" x2="-118.86" y2="-513.27" gradientTransform="translate(409 860.49)" xlink:href="#linear-gradient" fill="#000000"/><linearGradient id="linear-gradient-15" x1="-96.25" y1="1098.14" x2="-79.36" y2="1085.36" gradientTransform="translate(409 1475.6) scale(1 -1)" xlink:href="#linear-gradient" fill="#000000"/><linearGradient id="linear-gradient-16" x1="-148.03" y1="1098.94" x2="-115.11" y2="1082.26" gradientTransform="translate(409 1475.6) scale(1 -1)" xlink:href="#linear-gradient" fill="#000000"/></defs><g id="background"><path class="cls-3" d="M492.95,313.36c-.48,9.43-2.89,18.65-7.08,27.11-6.83,13.57-17.47,24.66-30.05,33.23-7.02,4.75-14.52,8.75-22.38,11.94-4.32,1.77-8.74,3.31-13.22,4.63-27.14,7.94-55.79,8.33-84.04,8.66l-198.85,2.31h0l-26.15.3c-8.32.1-16.8.16-25.19-.3-16.01-.86-31.72-3.59-45.5-11.46-7.1-4.07-13.3-9.54-18.22-16.08-9.34-12.33-14.39-28.05-14.63-43.71v-1.65c.1-15.29,4.82-30.37,14.63-42.14.63-.74,1.26-1.48,1.93-2.2,1.39-1.5,2.9-2.95,4.5-4.4,10.14-9.15,23.54-17.35,29.61-29.14,10.68-20.75-2.64-29.22-4.39-49.57-2.95-34.22,31.7-73.55,59.85-89.26,30.27-16.92,68.38-18.95,100.28-5.38,33.75,14.37,65.25,45.68,100.86,36.85,11.45-2.84,21.96-9.82,33.76-10.03,21.8-.42,36.93,21.75,43.71,42.49,6.79,20.74,10.47,44.14,26.6,58.81,11.58,10.53,27.54,14.49,41.56,21.48,4.26,2.06,8.29,4.57,12.03,7.46,8.26,6.53,13.94,15.38,17.21,25.23,2.59,8,3.67,16.41,3.17,24.81Z" fill="#000000"/></g><g id="floor"><path class="cls-3" d="M455.94,373.9c-10.93,7.33-22.94,12.92-35.59,16.56-25.37,7.43-52.05,8.26-78.48,8.59l-5.54.07-73.01.86-37.08.44-82.54.96-6.26.07h0l-26.16.31c-8.32.1-16.79.15-25.19-.31-16.03-.84-31.74-3.57-45.53-11.41-7.07-4.09-13.24-9.57-18.14-16.11l433.52-.02Z" fill="#000000"/></g><g id="plant"><path class="cls-23" d="M90.59,226.89c1.22-1.39,2.68-2.7,4.5-3.08.55,1.06,0,2.36-.76,3.29s-1.71,1.77-2.09,2.87c1.58-1.89,3.72-3.22,6.11-3.82.85-.29,1.78-.24,2.58.15.23.12.41.34.48.59.14.65-.68,1.04-1.33,1.18-4.55,1.2-8.55,3.94-11.31,7.76,2.69-1.63,5.85-2.32,8.98-1.96.54.06,1.18.23,1.38.73.31.74-.53,1.45-1.3,1.71-2.95.98-6.64-.06-9.03,1.95,1.29-.14,2.59.22,3.62,1,.83.63,1.45,1.92.71,2.67-.5.39-1.15.54-1.77.4-1.71-.15-3.81-.43-4.79.97-.54.77-.5,1.77-.7,2.71-.16.75-.78,2.08-1.59,1.35-.54-.49-.33-2.2-.33-2.85.04-6.47,2.39-12.71,6.62-17.6v-.02Z" fill="#000000"/><path class="cls-2" d="M90.59,226.89c1.22-1.39,2.68-2.7,4.5-3.08.55,1.06,0,2.36-.76,3.29s-1.71,1.77-2.09,2.87c1.58-1.89,3.72-3.22,6.11-3.82.85-.29,1.78-.24,2.58.15.23.12.41.34.48.59.14.65-.68,1.04-1.33,1.18-4.55,1.2-8.55,3.94-11.31,7.76,2.69-1.63,5.85-2.32,8.98-1.96.54.06,1.18.23,1.38.73.31.74-.53,1.45-1.3,1.71-2.95.98-6.64-.06-9.03,1.95,1.29-.14,2.59.22,3.62,1,.83.63,1.45,1.92.71,2.67-.5.39-1.15.54-1.77.4-1.71-.15-3.81-.43-4.79.97-.54.77-.5,1.77-.7,2.71-.16.75-.78,2.08-1.59,1.35-.54-.49-.33-2.2-.33-2.85.04-6.47,2.39-12.71,6.62-17.6v-.02Z" fill="#000000"/><path class="cls-23" d="M80.19,242.31c-1.45-1.39-3.19-2.45-4.72-3.73-.54-.45-1.12-1.05-1.01-1.77.14-.57.6-1,1.18-1.1.57-.08,1.16-.04,1.72.11l-3.3-3.72c-.31-.35-.64-.83-.41-1.23s.86-.38,1.29-.18c.4.27.86.44,1.33.48-1.18-1.66-2.68-3.01-3.94-4.58s-2.27-3.54-2.08-5.52c0-.29.11-.57.29-.79.38-.38,1.01-.22,1.5,0,3.5,1.52,6.3,4.29,7.87,7.77-.54-1.69-.77-3.47-.65-5.25-.02-.42.14-.82.45-1.11.59-.41,1.37.3,1.71.95,2.32,4.53.7,10.03,1.65,15.04.12-1.39.77-2.69,1.82-3.62.29,2.58.19,5.19-.3,7.74.73.32.67,1.36.48,2.14-.24,1.18-.53,2.36-.89,3.54-1.3-.11-1.32-.81-1.73-1.86-.51-1.25-1.29-2.37-2.28-3.29Z" fill="#000000"/><path class="cls-14" d="M80.19,242.31c-1.45-1.39-3.19-2.45-4.72-3.73-.54-.45-1.12-1.05-1.01-1.77.14-.57.6-1,1.18-1.1.57-.08,1.16-.04,1.72.11l-3.3-3.72c-.31-.35-.64-.83-.41-1.23s.86-.38,1.29-.18c.4.27.86.44,1.33.48-1.18-1.66-2.68-3.01-3.94-4.58s-2.27-3.54-2.08-5.52c0-.29.11-.57.29-.79.38-.38,1.01-.22,1.5,0,3.5,1.52,6.3,4.29,7.87,7.77-.54-1.69-.77-3.47-.65-5.25-.02-.42.14-.82.45-1.11.59-.41,1.37.3,1.71.95,2.32,4.53.7,10.03,1.65,15.04.12-1.39.77-2.69,1.82-3.62.29,2.58.19,5.19-.3,7.74.73.32.67,1.36.48,2.14-.24,1.18-.53,2.36-.89,3.54-1.3-.11-1.32-.81-1.73-1.86-.51-1.25-1.29-2.37-2.28-3.29Z" fill="#000000"/><path class="cls-21" d="M91.83,280.23l-6.75.04h-6.68c-14.69-8.71,2.29-26.42,2.29-26.42,0,0,.67-2.76-.21-4.5-.2-.42-.52-.77-.91-1.02-2.17-1.3.86-1.81.86-1.81h9.06s3.1.26.77,1.89c-2.33,1.63-1.03,5.44-1.03,5.44,18.13,20.16,2.6,26.39,2.6,26.39Z" fill="#000000"/><path class="cls-12" d="M85.57,279.73c-.15.19-.31.37-.49.53h-6.68c-14.69-8.71,2.29-26.42,2.29-26.42,0,0,.67-2.76-.21-4.5,2.95-.22,4.37,3.58,3.98,6-.3,1.86-.59,3.74-.91,5.6-.38,1.74-.48,3.54-.3,5.31.37,2.36,1.71,4.44,2.59,6.66s1.2,4.93-.27,6.82Z" fill="#000000"/></g><g id="shadow"><path class="cls-1" d="M202.12,389.37c8.64,2.43,15.64,7.56,23.25,11.54-27.51.31-55.03.63-82.54.96,2.31-2.2,4.89-4.1,7.67-5.65,9.05-5.06,19.67-6.23,29.98-7.31,7.2-.76,14.64-1.49,21.64.47Z" fill="#000000"/><path class="cls-1" d="M342.43,396.64c-.12.79-.46,1.53-.98,2.14-.18.24-.34.49-.46.77l-5.54.07-73.02.84c1.32-1.03,2.52-2.21,3.58-3.51,1.52-1.89,2.74-4.03,4.51-5.67,5.23-4.85,13.51-3.95,20.28-1.77,2.06.67,4.13,1.44,6.3,1.41,3.85-.05,7.15-2.55,10.62-4.27,10.9-5.44,25.33-2.53,33.26,6.72.78.96,1.55,2.07,1.45,3.28Z" fill="#000000"/></g><g id="table"><path class="cls-23" d="M136.57,286.89v115.07h-12.67v-52.2H9.63c-1.69-6.22-2.6-12.63-2.7-19.08v-1.63c.1-15.28,4.82-30.4,14.64-42.14l115-.02Z" fill="#000000"/><path class="cls-23" d="M150.09,280.28v6.6H21.57c.62-.74,1.26-1.48,1.92-2.2,1.39-1.5,2.9-2.95,4.5-4.4h122.09Z" fill="#000000"/><path class="cls-13" d="M136.57,286.89l-66.02,18.76c-23.15,6.58-42.47,22.58-53.24,44.11h-7.67c-1.7-6.22-2.61-12.63-2.71-19.08v-1.63c.1-15.28,4.82-30.4,14.64-42.14l115-.02Z" fill="#000000"/><rect class="cls-11" x="123.9" y="349.76" width="6.05" height="52.1" fill="#000000"/></g><g id="chair"><path class="cls-1" d="M375.48,387.15c.17,2.46-1.58,4.84-1.08,7.25.73,3.54,4.77,2.95,8.4,2.68,8.8-.72,20.06-2.07,28.64-4.28,7.94-2.05,13.71-4.04,21.28-6.49.59-.19.41-1.87.44-2.49.05-.82-1.04-1.13-1.86-1.18-7.48-.24-15.05,0-22.39-1.48-3.3-.67-6.53-1.7-9.88-2.08-4.13-.47-8.26.04-12.39-.27-2.99-.23-10.28-3.51-13.06-2.16-4.17,2.06,1.7,7.52,1.91,10.49Z" fill="#000000"/><path class="cls-20" d="M492.24,314.05c-.48,9.43-2.89,18.65-7.08,27.11-1.55,3.08-3.31,6.06-5.25,8.9-6.54,9.61-15.09,17.7-24.78,24.34-7.02,4.75-14.52,8.74-22.38,11.93l-15.64-2.89-29.98-5.53c-1.47-.27-2.89-.44-4.24-.59-5.53-.63-9.83-.93-11.45-6.54-2.01-6.91,0-17.48,0-24.73,0-12.59,1.32-27.59,12.28-33.77,9.1-5.12,20.65-1.5,30.81-3.88.98-.16,1.9-.57,2.68-1.18,1.18-1.09,1.36-2.86,1.39-4.47.25-12.19-3.82-25.85,3.46-35.62,5.57-7.47,15.76-9.53,25.04-10.39,2.86-.27,5.72-.4,8.59-.37,1.39,0,2.78.06,4.17.18,9.61.74,18.77,3.83,23.66,11.74,2.61,4.23,3.54,9.24,4.41,14.13.4,2.26.79,4.54,1.18,6.82,1.3,8.15,2.48,16.5,3.13,24.81Z" fill="#000000"/><path class="cls-20" d="M492.24,314.05c-.48,9.43-2.89,18.65-7.08,27.11-1.55,3.08-3.31,6.06-5.25,8.9-3.59,1.53-7.92,1.51-11.93,1.57-6.31.1-12.6.64-18.83,1.62-2.8.44-5.71,1.02-7.91,2.81-2.9,2.36-3.9,6.39-4.06,10.14s.34,7.54-.3,11.24c-.15,1.25-.62,2.43-1.37,3.44-1.5,1.81-4.13,2.14-6.49,2.28-3.99.24-7.98.34-11.97.3-10.04-.13-20.05-1.18-29.9-3.14-1.71-.34-3.69-.95-4.24-2.61-.04-.12-.07-.25-.08-.38-.09-.78-.02-1.57.21-2.32l5.4-23.11c.73-3.14,1.49-6.34,3.16-9.09,3.33-5.52,9.65-8.34,15.58-10.83l15.97-6.73c4.37-1.83,7.33-2.07,6.95-7.2-.86-11.37-3.24-22.42-3.24-33.89,0-3.29.15-6.7,1.57-9.66,1.42-2.96,3.96-5.22,6.57-7.2,6.27-4.68,13.23-8.36,20.62-10.92,1.39,0,2.78.06,4.17.18,9.61.74,18.77,3.83,23.66,11.74,2.61,4.23,3.54,9.24,4.41,14.13.4,2.26.79,4.54,1.18,6.82.86,5.18,1.64,10.4,2.27,15.64.37,3.04.66,6.09.92,9.18Z" fill="#000000"/><path class="cls-20" d="M492.24,314.05c-.48,9.43-2.89,18.65-7.08,27.11-1.55,3.08-3.31,6.06-5.25,8.9-3.59,1.53-7.92,1.51-11.93,1.57-6.31.1-12.6.64-18.83,1.62-2.8.44-5.71,1.02-7.91,2.81,0,0,3.66-20.25,18.61-27.07,14.95-6.82,31.46-24.13,31.46-24.13.37,3.06.66,6.1.92,9.19Z" fill="#000000"/></g><g id="character_1"><path class="cls-23" d="M175.69,188.93s-14.83,4.57-20.84,47.39c-2.17,15.44,11.64,42.7,11.64,42.7l9.21-90.09Z" fill="#000000"/><path class="cls-18" d="M175.69,188.93s-14.83,4.57-20.84,47.39c-2.17,15.44,11.64,42.7,11.64,42.7l9.21-90.09Z" fill="#000000"/><path class="cls-20" d="M164.86,273.67c-3.16-.52-6.14,1.63-6.66,4.79-.1.63-.1,1.26,0,1.89,1.13,6.69,3.29,15.98,7.08,21.24,6.4,8.81,15.13,20.97,15.13,20.97l9.03,61.96,11.13-1.5-.1-59.37-12.57-46.16-23.05-3.81Z" fill="#000000"/><path class="cls-20" d="M187.88,277.48l-1.45,51.57-23.87,55.51-8-3.38-2.32-1,13.22-52.05s-5.15-14.16-8.93-24.49c-3.63-9.91,1.31-29.54,1.72-31.12v-.11l29.63,5.06Z" fill="#000000"/><path class="cls-23" d="M199.63,228.94l-8,44.98s-2.76,8.61-17.05,7.32c-5.23-.43-10.14-2.65-13.93-6.27h0l-.23-.22-.16-.17c-2.74-2.71-4.88-5.96-6.3-9.54,0,0,9.18-63.45,18.82-74.46.96-1.1,1.92-1.68,2.89-1.63,2.64.35,5.16,1.31,7.36,2.81,12.66,7.79,19.25,22.55,16.59,37.18Z" fill="#000000"/><path class="cls-17" d="M184.59,227.43l-10.03,53.8s15.37,2.11,17.05-7.32l4.72-27.36-11.74-19.12Z" fill="#000000"/><path class="cls-22" d="M175.69,188.93s1.53-11.57,2.14-19.1,3.07-17.6,15.7-16.31,12.67,20.38,9.18,28.37c-3.49,7.99-8.14,7.76-8.14,7.76,0,0-6.29-1.37-6.05,6.2l-12.83-6.92Z" fill="#000000"/><path class="cls-20" d="M180.36,151.92c-1.84,1.77-3.17,4-3.84,6.46-.57,1.99-.95,4.03-1.14,6.1l1.29-1.41c-.06,3.53-.33,7.06-.78,10.56-.48,3.26-.68,6.56-.59,9.85l2.36-.12,2.95,3.62,3.26-2.21,2.47-1.27,2.18-5.39c-1.12-.8-1.55-2.26-1.06-3.54.8-2.2,2.8-2.71,3.26-1.41.36,1.62.55,3.27.59,4.92l3.48-9.86s2.18-3.06,4.1-.96c1.15,1.28,2.6,2.24,4.21,2.81l-1.18-3.26,3.16.81-.25-3.76,2.36,1.65s1.03-6.1-.97-8.8c-2-2.7-9.95-13.53-25.85-4.79Z" fill="#000000"/><path class="cls-23" d="M236.82,255.1l-1.6,8.45-.43,2.27-28.8-2.15c-7.97-.68-15.8-6.14-16.79-14.11l-9.97-35.19c-1.47-4.71,1.16-9.72,5.87-11.19,1.28-.4,2.63-.5,3.96-.31,3.87.58,7.08,3.31,8.26,7.04l6.27,31.49c.74,3.79,3.64,6.79,7.39,7.67l25.83,6.01Z" fill="#000000"/><polygon class="cls-23" points="175.29 186.99 189.78 194.2 193.7 201.79 172.79 190.54 175.29 186.99" fill="#000000"/><polygon class="cls-15" points="175.29 186.99 189.78 194.2 193.7 201.79 172.79 190.54 175.29 186.99" fill="#000000"/><path class="cls-16" d="M164.2,272.2c-.08-.07-.16-.15-.24-.22l.05.05c.07.05.13.11.18.18Z" fill="#000000"/><path class="cls-19" d="M157.67,262.81s.86,9.49,3.05,11.91c-2.8-2.77-4.99-6.09-6.44-9.75,0,0,8.67-63.14,18.5-74.41l2.95,1.56-18.06,70.69Z" fill="#000000"/><path class="cls-19" d="M235.78,262.76l-.44,2.32-29.46-2.2c-8.15-.7-16.16-6.28-17.17-14.43l-10.17-36c-.93-3-.26-6.27,1.77-8.67,0,0,9.49,44.55,12.98,48.54,3.49,3.99,10.13,6.38,10.13,6.38l32.35,4.04Z" fill="#000000"/><path class="cls-19" d="M170.16,332.59l-15.84,50.04-2.36-1.01,13.52-53.23s-5.26-14.48-9.13-25.05c-3.72-10.13,1.34-30.21,1.77-31.82l2.02,2.09s-5.31,23.76,1.52,35.05c6.83,11.29,8.5,23.93,8.5,23.93Z" fill="#000000"/><path class="cls-23" d="M153.75,380.63l-3.39,6.17,3.41,1.95,1.27-1.01,5.5,5.06s1.96,1.36,6.77,1.36,5.76-.69,5.76-.69c0,0,0-7.08-5.9-6.76-5.9.32-6.31-3.03-6.31-3.03l-7.11-3.05Z" fill="#000000"/><path class="cls-23" d="M191.3,384.33l-.55,9.12h4.13v-3.42l5.61,3.42,13.86-.04s0-9.44-6.23-8.95-8.75,0-8.75,0l-.99-1.32-7.08,1.17Z" fill="#000000"/><path class="cls-7" d="M153.75,380.63l-3.39,6.17,3.41,1.95,1.27-1.01,5.5,5.06s1.96,1.36,6.77,1.36,5.76-.69,5.76-.69c0,0,0-7.08-5.9-6.76-5.9.32-6.31-3.03-6.31-3.03l-7.11-3.05Z" fill="#000000"/><path class="cls-4" d="M191.3,384.33l-.55,9.12h4.13v-3.42l5.61,3.42,13.86-.04s0-9.44-6.23-8.95-8.75,0-8.75,0l-.99-1.32-7.08,1.17Z" fill="#000000"/><path class="cls-22" d="M236.55,256.33c1.93-1.69,4.04-3.15,6.3-4.37,1.77-.62,3.61-1,5.48-1.13,0,0,.31,2.58-1.18,2.75s-2.73,2.43-2.73,2.43c0,0,9.54,3.91,10.86,3.54s1.06,1.53-1.36,1.41-3,3.25-4.67,3.2-4.31.99-6.77,1.07c-2.48-.21-4.92-.77-7.23-1.69l1.3-7.22Z" fill="#000000"/></g><g id="character_2"><path class="cls-20" d="M303.49,313.91l-13.5,66.39-9.07-1.04-1.04-.12s2.6-19.67,3.72-47.73c.74-18.59,3.92-33.76,5.44-46.38.47-3.48,1.26-6.9,2.36-10.23,1.84-5.58,4.64-10.8,8.21-10.27,7.87,1.18,18.24,7.98,19.61,12.24,2.38,7.44-15.73,37.14-15.73,37.14Z" fill="#000000"/><path class="cls-19" d="M294.05,274.97s-6.05,46.86-6.24,61.47c-.19,14.62-6.21,42.7-6.21,42.7l-.7.12-1.04-.12s2.6-19.67,3.72-47.73c.74-18.59,3.92-33.76,5.44-46.38.47-3.48,1.26-6.9,2.36-10.23.89-.05,1.79.01,2.67.17Z" fill="#000000"/><path class="cls-20" d="M334.43,380.2h-10.03v-.06c-.27-1.35-5.31-26.31-12.43-44.39-5.31-13.48-7.88-40.95-8.85-55-.39-5.31-.54-8.71-.54-8.71,0,0,20.37-6.01,23.01-3.35,2.64,2.67,5.65,14.75,5.65,14.75,0,0-6.97,47.86-2.54,51.1,4.44,3.25,5.74,45.65,5.74,45.65Z" fill="#000000"/><path class="cls-23" d="M286.72,244.49l-29.45,14.6-5.5-7h0l-1.41-1.81,25.16-13.67s8.64-19.22,10.52-28.05c.36-1.64.72-2.95,1.06-4.08.65-2.05,6.9-9.28,9-9.71,2.1-.43-.27,6.02,1.13,7.67,1.54,2.26,2.32,4.94,2.24,7.67.24,5.49-12.76,34.38-12.76,34.38Z" fill="#000000"/><path class="cls-23" d="M325.58,261.59s-14.63,17.58-31.49,13.39c-1.16-.29-2.3-.68-3.4-1.14-2.98-1.29-4.36-4.74-3.09-7.73v-.04c1.63-3.69,1.68-9.03,1.53-13.96-.34-11.34-3.21-23.6-3.42-28.71-.14-3.26.38-7.88,1.35-12.5,1.69-8.2,4.72-16.37,7.85-16.85,9.23-1.42,12.39,1.09,12.39,1.09l15.76,9.15c7.84,8.18,4.03,21.02,2.53,57.29Z" fill="#000000"/><polygon class="cls-23" points="302.45 215.29 306.48 221.78 295.32 233.07 293.03 235.39 305.15 194.3 305.2 190.18 306.74 191.76 306.74 191.76 308.76 193.83 309.53 210.85 302.45 215.29" fill="#000000"/><path class="cls-5" d="M324.08,224.99l-1.71,44.31s-24.08,11.44-27.26-1.42c-2.46-9.94,3.84-21.27,3.84-21.27l25.13-21.62Z" fill="#000000"/><polygon class="cls-21" points="300.37 249.56 293.13 278.71 337.87 287.89 344.3 259.37 300.37 249.56" fill="#000000"/><path class="cls-22" d="M305.51,183.68c0,.13-.16,6.73-.39,10.93-.17,3.25-1.69,5.54-4.01,7.81-1.35,1.41-2.98,2.53-4.77,3.29-1.31.48-2.76-.19-3.25-1.49h0c-.18-.49-.2-1.03-.06-1.53.23-.87.46-1.89.64-2.95.38-2.19.54-4.56-.05-6.24-.02-.06-.04-.12-.06-.18-.35-.87,0-1.81.8-2.76,1.13-1.34,3.1-2.7,5.06-3.84,1.97-1.13,4.01-2.14,6.1-3.03Z" fill="#000000"/><path class="cls-22" d="M294.95,199.29c-.4.2-.83.35-1.27.45.38-2.19.54-4.56-.05-6.24l.74-2.95.56-2.2,4.5-1.65,4.56-1.66c-1.1,8.12-5.44,12.54-9.04,14.24Z" fill="#000000"/><path class="cls-22" d="M293.71,160.61c-7.16.44-12.6,6.6-12.16,13.75,0,0,0,0,0,0h0c.01.33.04.67.1,1,.41,5.28,1.78,10.43,4.02,15.22,4.24,7.2,14.9,1.24,16.58-1.73,1.68-2.97,8.03-16.43,5.35-20.25-1.77-2.66-6.97-8.31-13.89-8Z" fill="#000000"/><path class="cls-20" d="M282.43,155.53l2.2,1.12c-2.65-.05-5.17,1.17-6.77,3.29-2.01,2.01-3.14,4.73-3.16,7.57l3.72-1.77s-.28,4.6,6.78,4.93,14.53.59,14.53.59l-2.4-3.31s4.39,1.77,5.16,3.37c.7,2.6,1.21,5.24,1.51,7.92,0,0,1.74-4.54,2.47-3.54s-.76,5.1-1.67,6.01-.76,3.61-.84,3.83,4.37-3.49,4.57-4.76,4.61-14.16,1.71-16.85l1.77-.14c-1.04-.7-2.22-1.16-3.46-1.33,0,0-11.62-15.15-26.11-6.93Z" fill="#000000"/><path class="cls-22" d="M251.77,252.08l-4.01,1.25s-5.02.45-6.69,1.88-.74,2.07-.74,2.07c0,0,5.31-.78,6.46-.34s6.74,2.67,8.51,2.64,1.96-.49,1.96-.49l-5.5-7.01Z" fill="#000000"/><path class="cls-22" d="M239.66,262.57c.6-.53,1.42-.75,2.2-.59.09.01.17.06.23.12.08.15.08.32,0,.47-.27.9-.69,1.74-1.25,2.5.63-.21.91-.91,1.31-1.43.6-.8,1.54-1.28,2.54-1.31.12-.01.24.01.34.07.24.17.14.54,0,.81-.25.5-.49,1-.74,1.5.63-.9,1.35-1.73,2.16-2.48.19-.21.44-.36.71-.44.28-.09.58.05.71.31.05.16.05.33,0,.48-.17.68-.47,1.33-.89,1.89.5-.82,1.12-1.56,1.85-2.19.1-.12.26-.19.42-.17.09.03.16.09.21.18.25.41,0,.94-.26,1.35-.48.76-1.09,1.58-1.98,1.71-.2.01-.4.05-.59.11-.14.07-.27.16-.38.25-.63.43-1.45.45-2.09.05-.88.56-2.01.54-2.87-.05-.2-.17-.49-.2-.71-.05-.79.27-1.66.01-2.17-.64-.53-.76.66-1.93,1.25-2.44Z" fill="#000000"/><path class="cls-23" d="M326.13,277.26l-9.85-3.4-.34-.12,7.18-23.08s-9.44-25.96-11.01-33.91c-.51-2.64-.53-5.36-.07-8.01.47-2.82,2.63-5.06,5.43-5.64,1.53-.34,3.13-.13,4.52.59,1.23.64,2.41,1.36,3.54,2.16.91.66,1.55,1.62,1.81,2.7,1.77,7.27,8.89,36.93,9.16,39.74.29,3.23-10.37,28.97-10.37,28.97Z" fill="#000000"/><path class="cls-22" d="M313.37,275.82c-.48.46-.94,1.29-.43,1.72.12.11.3.17.4.3.25.31-.06.75-.34,1.03l-2.36,2.3c-.87.84-1.82,1.9-1.62,3.1.2.87.86,1.56,1.71,1.8.85.22,1.74.21,2.58-.03-.03.51.25.98.7,1.21.45.21.94.33,1.44.35,1.44.26,2.91.22,4.34-.12.11.16.21.31.32.47,1.86-.33,2.88-2.32,3.54-4.1.66-1.77,1.33-3.74,1.9-5.65.11-.26.12-.54.05-.81-.18-.32-.48-.55-.84-.63-2.25-.86-4.5-1.73-6.76-2.57-2.09-.78-3.04.15-4.63,1.63Z" fill="#000000"/><polygon class="cls-23" points="302.45 215.29 306.48 221.78 295.32 233.07 293.03 235.39 305.15 194.3 305.2 190.18 306.74 191.76 306.74 191.76 308.76 193.83 309.53 210.85 302.45 215.29" fill="#000000"/><path class="cls-21" d="M293.68,199.74l-1.5,7.08.86,28.57,10.99-37.25-4.72,2.99c-.25.16-.51.31-.78.44-1.72.87-3.82.17-4.69-1.55,0,0,0,0,0,0h0c-.05-.09-.09-.19-.13-.29h-.02Z" fill="#000000"/><path class="cls-23" d="M293.75,194.03l-4.9,9.19,1.63,3.84-2.66,5.75,5.2,22.58s-1.42-27.6.65-35.66c.02.01.7-3.83.09-5.69Z" fill="#000000"/><polygon class="cls-6" points="302.45 215.29 306.48 221.78 295.32 233.07 293.03 235.39 305.15 194.3 305.2 190.18 306.74 191.76 306.74 191.76 308.76 193.83 309.53 210.85 302.45 215.29" fill="#000000"/><path class="cls-10" d="M293.75,194.03l-4.9,9.19,1.63,3.84-2.66,5.75,5.2,22.58s-1.42-27.6.65-35.66c.02.01.7-3.83.09-5.69Z" fill="#000000"/><path class="cls-19" d="M285.73,211.63l.14,6.49-8.47,21.33-25.89,13.57h0l-1.45-1.86,25.73-13.96s8.03-16.52,9.95-25.57Z" fill="#000000"/><path class="cls-19" d="M294.45,274.97h0c-1.19-.3-2.35-.7-3.48-1.18-3.06-1.31-4.47-4.85-3.17-7.9h0v-.09c1.67-3.78,1.72-9.24,1.56-14.28-.35-11.59-3.28-24.12-3.5-29.36-.14-3.33.4-8.06,1.37-12.78l1.85-7.84s-1.7,12.72-2.14,16.21,3.54,23.34,5.02,26.22-1.12,19.83-.77,23.85,3.23,7.15,3.23,7.15Z" fill="#000000"/><path class="cls-19" d="M327.31,380.31l-2.41,1.18c-.28-1.39-5.44-26.91-12.72-45.4-5.43-13.79-8.05-41.9-9.08-56.25l2.99.59s4.44,36.64,9.31,50.19c4.87,13.55,11.9,49.69,11.9,49.69Z" fill="#000000"/><path class="cls-19" d="M325.85,249.39l-7.82,25.2-1.77-.34-.35-.12,7.35-23.6s-9.62-26.52-11.25-34.69c-.52-2.7-.54-5.48-.08-8.19.48-2.88,2.69-5.17,5.55-5.77,0,0-5.31,3.7-3.69,11.88,2.11,10.51,12.06,35.62,12.06,35.62Z" fill="#000000"/><polygon class="cls-19" points="307.96 195.39 295.73 234.2 293.38 236.57 305.78 194.54 305.83 190.34 307.41 191.95 307.41 191.95 307.96 195.39" fill="#000000"/><path class="cls-23" d="M333.87,380.17l.59,9.12h-4.13v-3.45l-5.56,3.46-13.86.04s0-9.44,6.19-8.98c6.19.47,8.75,0,8.75,0l.97-1.32,7.06,1.13Z" fill="#000000"/><path class="cls-23" d="M288.69,380.28l.59,9.11h-4.13v-3.45l-5.6,3.49-13.86.04s0-9.44,6.19-8.98c6.19.47,8.75,0,8.75,0l.97-1.32,7.09,1.1Z" fill="#000000"/><path class="cls-9" d="M333.87,380.17l.59,9.12h-4.13v-3.45l-5.56,3.46-13.86.04s0-9.44,6.19-8.98c6.19.47,8.75,0,8.75,0l.97-1.32,7.06,1.13Z" fill="#000000"/><path class="cls-8" d="M288.69,380.28l.59,9.11h-4.13v-3.45l-5.6,3.49-13.86.04s0-9.44,6.19-8.98c6.19.47,8.75,0,8.75,0l.97-1.32,7.09,1.1Z" fill="#000000"/></g></svg>