<svg xmlns="http://www.w3.org/2000/svg" xmlns:xlink="http://www.w3.org/1999/xlink" transform="matrix(1, 0, 0, 1, 0, 0)" id="_0662_Team_Brainstorming_3" viewBox="0 0 500 500" class="show_show__wrapper__graphic__5Waiy "><title>React</title><defs fill="#000000"><style>.cls-1{fill:url(#linear-gradient);}.cls-1,.cls-2,.cls-3,.cls-4,.cls-5,.cls-6,.cls-7,.cls-8,.cls-9,.cls-10,.cls-11,.cls-12,.cls-13,.cls-14,.cls-15,.cls-16,.cls-17,.cls-18,.cls-19{stroke-width:0px;}.cls-2{isolation:isolate;opacity:.18;}.cls-2,.cls-19{fill:#fdbf2e;}.cls-3{fill:url(#linear-gradient-11);}.cls-4{fill:url(#linear-gradient-12);}.cls-5{fill:url(#linear-gradient-13);}.cls-6{fill:url(#linear-gradient-10);}.cls-20{opacity:.79;}.cls-7{fill:url(#linear-gradient-4);}.cls-8{fill:url(#linear-gradient-2);}.cls-9{fill:url(#linear-gradient-3);}.cls-10{fill:url(#linear-gradient-8);}.cls-11{fill:url(#linear-gradient-9);}.cls-12{fill:url(#linear-gradient-7);}.cls-13{fill:url(#linear-gradient-5);}.cls-14{fill:url(#linear-gradient-6);}.cls-15{fill:#594f59;}.cls-16{fill:#231f20;}.cls-17{fill:#fff;}.cls-18{fill:#ffb4a3;}</style><linearGradient id="linear-gradient" x1="-21.68" y1="1.68" x2="692.75" y2="526.9" gradientUnits="userSpaceOnUse" fill="#000000"><stop offset="0" stop-color="#231f20" fill="#000000"/><stop offset=".08" stop-color="#231f20" stop-opacity=".69" fill="#000000"/><stop offset=".11" stop-color="#231f20" stop-opacity=".58" fill="#000000"/><stop offset=".25" stop-color="#231f20" stop-opacity=".25" fill="#000000"/><stop offset=".45" stop-color="#231f20" stop-opacity=".05" fill="#000000"/><stop offset="1" stop-color="#231f20" stop-opacity="0" fill="#000000"/></linearGradient><linearGradient id="linear-gradient-2" x1="289.74" y1="199.11" x2="421.45" y2="250.08" gradientUnits="userSpaceOnUse" fill="#000000"><stop offset="0" stop-color="#231f20" fill="#000000"/><stop offset=".08" stop-color="#231f20" stop-opacity=".69" fill="#000000"/><stop offset=".21" stop-color="#231f20" stop-opacity=".32" fill="#000000"/><stop offset="1" stop-color="#231f20" stop-opacity="0" fill="#000000"/></linearGradient><linearGradient id="linear-gradient-3" x1="291.37" y1="198.79" x2="421.04" y2="248.98" xlink:href="#linear-gradient-2" fill="#000000"/><linearGradient id="linear-gradient-4" x1="314.69" y1="180.2" x2="320.55" y2="188.02" gradientTransform="translate(161.74 -147.97) rotate(34.32)" gradientUnits="userSpaceOnUse" fill="#000000"><stop offset="0" stop-color="#fff" fill="#000000"/><stop offset="1" stop-color="#f2f0f2" fill="#000000"/></linearGradient><linearGradient id="linear-gradient-5" x1="317.67" y1="176.96" x2="450.78" y2="374.54" xlink:href="#linear-gradient-2" fill="#000000"/><linearGradient id="linear-gradient-6" x1="418.3" y1="383.27" x2="553.09" y2="369.03" xlink:href="#linear-gradient-2" fill="#000000"/><linearGradient id="linear-gradient-7" x1="233.88" y1="83.73" x2="249.46" y2="241.95" gradientUnits="userSpaceOnUse" fill="#000000"><stop offset="0" stop-color="#fff" fill="#000000"/><stop offset="1" stop-color="#fff" stop-opacity="0" fill="#000000"/></linearGradient><linearGradient id="linear-gradient-8" x1="302" y1="44.02" x2="317.37" y2="200.07" gradientTransform="translate(-37.56 19.69) rotate(5.12) scale(.86 .95) skewX(10.69)" xlink:href="#linear-gradient-7" fill="#000000"/><linearGradient id="linear-gradient-9" x1="-105.11" y1="249.85" x2="145.5" y2="343.06" xlink:href="#linear-gradient-2" fill="#000000"/><linearGradient id="linear-gradient-10" x1="145.89" y1="204.69" x2="116.03" y2="238.73" xlink:href="#linear-gradient-2" fill="#000000"/><linearGradient id="linear-gradient-11" x1="25.83" y1="207.42" x2="95.04" y2="228.63" xlink:href="#linear-gradient-2" fill="#000000"/><linearGradient id="linear-gradient-12" x1="71.82" y1="373.63" x2="84.38" y2="433.35" xlink:href="#linear-gradient-2" fill="#000000"/><linearGradient id="linear-gradient-13" x1="120.68" y1="373.52" x2="146.63" y2="424.03" xlink:href="#linear-gradient-2" fill="#000000"/></defs><path class="cls-2" id="background" d="M469.17,384.05c-2.49,10.33-9.35,13.32-14.03,22-3.69,6.84-2.77,13.23-8.41,19.26-5.03,5.37-13.18,8.79-20.98,11.25-3.36,1.07-6.66,1.95-9.6,2.73-3.08.82-6.18,1.56-9.28,2.22-5,1.07-10.04,1.95-15.1,2.67-6.22.9-12.47,1.57-18.75,2.07-15.61,1.24-31.38,1.47-47.04,1.68-45.77.62-91.55,1.24-137.33,1.86-12.64.17-25.35.45-38.05.4-4.73-.01-9.46-.07-14.18-.21-7.91-.21-15.8-.62-23.66-1.32-7.56-.68-15-.88-22.37-1.25-7.24-.37-14.41-.9-21.56-2.23-5.53-1.02-11.05-2.51-16.58-4.77-7.99-3.26-15.97-7.93-20.06-15.52-3.19-5.95-3.62-12.97-3.5-19.71.28-15.8.7-31.92,5.85-46.96,5.26-15.34,13.88-29.36,17.59-45.25,1.38-5.88,2.05-11.81,2.22-17.76.2-6.82-.24-13.68-1-20.56-.6-5.49-1.4-11-2.23-16.52-1.68-11.1-3.49-22.25-4.06-33.38h0c-.17-3.32-.23-6.62-.15-9.92.02-.63.04-1.27.06-1.9h0c.09-2.11.24-4.18.45-6.26,1.04-10.59,3.55-20.86,7.29-30.71h0c3.96-10.42,9.28-20.35,15.67-29.68,19.44-28.35,48.81-51.15,79.94-64.84,2.63-1.16,5.28-2.25,7.94-3.27,6.36-2.47,12.76-4.54,19.15-6.2,2.54-.66,5.09-1.28,7.66-1.84,2.24-.51,4.5-.98,6.77-1.41,2.49-.48,4.99-.91,7.5-1.3,2.96-.47,5.93-.88,8.9-1.22,38.33-4.49,77.83.74,112.92,16.6,1.36.61,2.72,1.24,4.07,1.89,3.73,1.79,7.4,3.69,11.02,5.7,2.68,1.48,5.32,3.01,7.94,4.59,9.61,5.8,18.87,12.2,27.92,18.85.42.3.84.61,1.26.92,5.24,3.87,10.47,7.9,15.59,12.1,0,0,0,.01.02.01,3.05,2.5,6.04,5.04,9,7.65.54.48,1.07.96,1.61,1.44,0,0,0,0,0,0,.21.19.42.38.64.57,2.86,2.59,5.67,5.23,8.4,7.93.92.91,1.83,1.83,2.73,2.75,4.83,4.92,9.4,10.04,13.64,15.35,14.28,17.94,24.66,38.15,27.46,60.88,2.44,19.76-1.18,39.81-6.73,58.93-2.87,9.9-6.3,20.16-4.43,30.3,2.91,15.8,17.62,26.56,24.48,41.09,4.37,9.24,5.78,20.32,3.38,30.29Z" fill="#000000"/><g id="bubble"><path class="cls-19" d="M69.09,67.41h-22.61c-10.7,0-19.38,8.68-19.38,19.38h0c0,10.7,8.68,19.38,19.38,19.38h17.6c2.55,4,7.7,11.23,12.55,13.09,0,0-2.74-7.73-3.53-13.51,8.78-1.85,15.37-9.63,15.37-18.96h0c0-10.7-8.68-19.38-19.38-19.38Z" fill="#000000"/><circle class="cls-17" cx="47.23" cy="86.38" r="2.09" fill="#000000"/><circle class="cls-17" cx="57.78" cy="86.38" r="2.09" fill="#000000"/><circle class="cls-17" cx="68.34" cy="86.38" r="2.09" fill="#000000"/></g><g id="screen"><path class="cls-1" d="M344.19,94.98v204.22c0,11.39-9.23,20.63-20.63,20.63h-144.68c-11.39,0-20.62-9.24-20.62-20.63V78.17c6.36-2.47,12.76-4.54,19.15-6.2,2.54-.66,5.09-1.28,7.66-1.84,2.24-.51,4.5-.98,6.77-1.41,2.49-.48,4.99-.91,7.5-1.3,2.96-.47,5.93-.88,8.9-1.22,38.33-4.49,77.83.74,112.92,16.6,1.36.61,2.72,1.24,4.07,1.89,3.73,1.79,7.4,3.69,11.02,5.7,2.68,1.48,5.32,3.01,7.94,4.59Z" fill="#000000"/><rect class="cls-17" x="150.32" y="47.44" width="185.93" height="268.27" rx="20.63" ry="20.63" fill="#000000"/><path class="cls-19" d="M336.25,68.06v14.73h-185.93v-14.73c0-11.39,9.23-20.63,20.63-20.63h144.68c11.39,0,20.63,9.23,20.63,20.63Z" fill="#000000"/><circle class="cls-17" cx="171.14" cy="66.61" r="4.49" fill="#000000"/><circle class="cls-17" cx="187.86" cy="66.61" r="4.49" fill="#000000"/><circle class="cls-17" cx="203.77" cy="66.61" r="4.49" fill="#000000"/><rect class="cls-19" x="201.41" y="261.99" width="83.53" height="23.57" rx="11.79" ry="11.79" fill="#000000"/></g><g id="Character_2"><rect class="cls-19" x="314.72" y="184.56" width="46" height="66.22" rx="3.02" ry="3.02" transform="translate(-63.93 228.31) rotate(-34.32)" fill="#000000"/><path class="cls-8" d="M372.9,233.75l-31.25,21.33-1.77,1.21c-1.37.94-3.25.58-4.2-.8l-33.93-49.7c-.94-1.38-.58-3.26.8-4.2l1.76-1.2s.01-.01.01-.01l31.3-21.36c1.37-.89,3.2-.51,4.12.84l33.93,49.7c.94,1.37.59,3.24-.77,4.19Z" fill="#000000"/><path class="cls-9" d="M372.9,233.75l-31.25,21.33c-1.38.94-3.26.58-4.2-.79l-33.93-49.71c-.94-1.38-.58-3.25.79-4.19,0-.01.01-.01.01-.01l31.3-21.36c1.37-.89,3.2-.51,4.12.84l33.93,49.7c.94,1.37.59,3.24-.77,4.19Z" fill="#000000"/><path class="cls-17" d="M307.48,200.89l27.21-20.37s28.85,42.42,31.8,43.67l-26.95,19.26s-27.45-26.51-32.06-42.56Z" fill="#000000"/><rect class="cls-15" x="309.52" y="184.23" width="19.93" height="8.69" rx="3.06" ry="3.06" transform="translate(-50.7 212.96) rotate(-34.32)" fill="#000000"/><rect class="cls-7" x="310.5" y="183.56" width="19.93" height="8.69" rx="3.06" ry="3.06" transform="translate(-50.15 213.4) rotate(-34.32)" fill="#000000"/><path class="cls-18" d="M394.04,127.56c-1.22-.51-2.45-.92-3.65-1.44-1.3-.56-2.7-.91-4.12-.92-1.74-.02-3.51.49-4.88,1.57-1.07.85-2.25,2.23-2.78,3.51s-.67,2.65-1.18,3.91c-1.01,2.48-2.55,4.77-4.73,6.36-1.66,1.21-3.89,2.41-3.86,4.46,0,.84.43,1.63.93,2.31,1.03,1.43,2.4,2.61,3.96,3.41.32.17.67.33.87.63.21.32.21.72.21,1.1,0,4.16.25,8.32.95,12.42.28,1.62.67,3.33,1.81,4.52,1.25,1.32,3.17,1.76,4.97,1.96,3.78.43,7.72.1,11.19-1.46s6.43-4.45,7.59-8.08c.25-.77.42-1.58.88-2.25,1.05-1.55,3.17-1.81,4.93-2.45,2.18-.79,4.1-2.41,5.04-4.53s.78-4.75-.57-6.63-3.95-2.85-6.15-2.12c-1.62.54-2.89,1.87-4.49,2.45.42-2.77.84-5.57.61-8.36s-1.17-5.61-3.14-7.61c-1.22-1.24-2.77-2.1-4.38-2.76Z" fill="#000000"/><path class="cls-15" d="M379.89,107.69c-3.37.08-6.39,2.59-7.63,5.72-1.23,3.13-.86,6.74.44,9.84.57,1.36,1.33,2.66,2.43,3.64,2.36,2.1,6.21,2.28,8.75.4,0,1.9,1.7,3.44,3.54,3.91s3.77.11,5.63-.25c.27,2.59,3.48,4.39,5.83,3.27,2.28,4.39,1.31,9.68.3,14.52,1.28-2.09,3.65-3.24,5.99-3.94,1.57-.47,3.39-.74,4.76.17,1.91,1.27,1.88,4.14,1.04,6.27-1.19,2.99-3.6,5.47-6.55,6.76-1.15.5-2.53.98-2.9,2.18,2.52-.24,5.12.31,7.32,1.57,1.71.98,3.18,2.36,4.96,3.19s4.13.96,5.53-.43c.05.24.09.47.14.71,1.36-.62,2.65-1.41,3.83-2.34.07.79.14,1.58.21,2.38,2.37-3.79,3.73-8.09,5.7-12.09s4.31-8.19,7.38-11.64c1.26-1.42,2.66-2.72,3.74-4.28s1.83-3.44,1.6-5.33c-.39-3.17-3.36-5.41-4.39-8.43-.65-1.91-.49-3.99-.71-6-.65-5.94-5.59-11.55-11.56-11.65-.03.77-.06,1.53-.09,2.3-4.61-3.68-9.57-7.51-15.44-8.11-2.83-.29-5.67.2-8.46.76-2.61.52-5.31,1.13-7.38,2.8-.73.59-1.37,1.3-2.22,1.69-1.73.8-3.74.07-5.61-.31-3.52-.72-7.29-.13-10.41,1.64,1.07.28,2.1.73,3.03,1.33l1.22-.24Z" fill="#000000"/><path class="cls-18" d="M417.4,181.42c.13.5.26,1.03.1,1.52-.15.45-.54.78-.92,1.08-2.2,1.79-4.49,3.63-7.23,4.38-2.37.65-4.88.43-7.33.2-3-.28-6-.56-9-.84-1.58-.15-3.19-.3-4.67-.89,3.54-3.7,5.62-8.76,5.7-13.87.03-2.14-.27-4.27-.21-6.4s.52-4.35,1.87-6.01c2.24-2.74,6.22-3.19,9.76-3.09,4.04.11,11.28,1.02,11.71,6.2.22,2.62-.68,5.34-.79,7.96-.14,3.28.2,6.58,1.01,9.77Z" fill="#000000"/><path class="cls-19" d="M377.45,215.89c-.66-8.59,3.33-18.51,8-25.52.22-.33.45-.66.68-.99,4.62-6.54,13.07-8.63,20.84-9.36,3.96-.37,7.18.57,10.99,1.28,2.4.45,5.49.01,6.45,2.97,1.87.79,3.15,3.12,4.09,4.91,4.64,8.81,6.12,19.6,7.49,29.3,1.07,7.55,1.8,15.14,2.35,22.74,4,54.74,0,84.7,0,85.9s-51.32,3.64-60.22-1.78c-4.5-2.74-3.59-15.66-3.75-19.9-.46-12.71-.02-25.46.55-38.16s1.3-24.34,2.19-36.49c.34-4.63,1.01-9.3.45-13.91-.04-.33-.07-.66-.1-1Z" fill="#000000"/><path class="cls-13" d="M406.74,325.34s-3.41-18.54-3.77-28.96-1.85-57.38-1.85-57.38l-26.9,60.16s-.63,23.89,1.79,26.18,30.73,2.11,30.73,2.11" fill="#000000"/><path class="cls-19" d="M386.79,203.62s6.38-5.55,16.17-3.96,11.11,28.77,8.85,33.56-28.59,65.94-37.6,65.93-44.96-33.57-44.96-33.57c0,0,2.8-15.98,14.38-19.38l20.58,12.91s13.74-51.61,22.57-55.5Z" fill="#000000"/><path class="cls-18" d="M335.16,240.05c-.27-1.1-.35-2.23-.45-3.35-.35-4.04-.86-8.09-2.11-11.95-.35-1.07-.97-2.3-2.09-2.38-1.1-.08-1.89,1.02-2.33,2.03-.57,1.29-.95,2.66-1.58,3.92s-1.56,2.44-2.86,2.98c-.28.12-.58.2-.88.16-.3-.04-.56-.21-.81-.38-4.23-2.88-7.15-7.32-11.13-10.55-.25-.2-.54-.41-.86-.37-.21.03-.38.16-.55.29-.68.53-1.39,1.1-1.74,1.89-.35.79-.3,1.7-.21,2.56.37,3.67,1.22,7.3,2.52,10.76.47,1.26,1.01,2.51,1.78,3.61.91,1.32,2.11,2.4,3.33,3.42,2.67,2.24,5.51,4.28,8.48,6.1,1.19.73,2.43,1.44,3.36,2.5,1,1.14,1.55,2.59,2.34,3.89s1.98,2.51,3.49,2.65c1.39.12,2.67-.69,3.75-1.56,1.89-1.52,5.47-5,4.02-7.71-.77-1.44-2.28-2.57-3.23-3.9s-1.81-2.92-2.22-4.59Z" fill="#000000"/><path class="cls-16" d="M427.15,370.67c-4.99,14.7-3.05,47.31-1.4,65.89-3.36,1.07-6.66,1.95-9.6,2.73-3.08.82-6.18,1.56-9.28,2.22-4.96-21.82-11.7-59.22-13.82-71.1-.42-2.38-.66-3.74-.66-3.74v-20.38l13.41-17.6.94-1.24,27.59.34c0,.12-.01,21.76-7.18,42.88Z" fill="#000000"/><path class="cls-14" d="M427.15,370.67c-4.99,14.7-3.05,47.31-1.4,65.89-3.36,1.07-6.66,1.95-9.6,2.73-3.08.82-6.18,1.56-9.28,2.22-4.96-21.82-11.7-59.22-13.82-71.1-.42-2.38-.66-3.74-.66-3.74v-20.38l13.41-17.6.94-1.24,27.59.34c0,.12-.01,21.76-7.18,42.88Z" fill="#000000"/><path class="cls-16" d="M421.98,328.5s-.42,5.41-4.4,13c-2.17,4.14-14.12,17.57-24.53,28.91-8.65,9.44-14.98,21.76-14.98,21.76,0,0,9.32,31.47,13.7,52.01-6.22.9-12.47,1.57-18.75,2.07-9.23-13.97-23.26-36.92-25.38-50.41-3.2-20.38,28.37-70.5,28.37-70.5l2.39.16,28.34,1.95,15.19,1.05h.05Z" fill="#000000"/></g><g id="lamp"><path class="cls-19" d="M284.55,151.94c-.68-24.42-21.2-43.62-45.7-42.59-23.63,1-42.35,20.85-41.98,44.5.22,13.52,6.51,25.48,16.22,33.36,6.82,5.54,11.2,13.54,12.47,22.24l2.11,14.43,13.84-.38,2.33-.06,13.84-.38,1.33-14.67c.79-8.84,4.96-16.98,11.47-23.01,8.96-8.29,14.43-20.26,14.06-33.42v-.02Z" fill="#000000"/><path class="cls-12" d="M284.55,151.94c-.68-24.42-21.2-43.62-45.7-42.59-23.63,1-42.35,20.85-41.98,44.5.22,13.52,6.51,25.48,16.22,33.36,6.82,5.54,11.2,13.54,12.47,22.24l2.11,14.43,13.84-.38,2.33-.06,13.84-.38,1.33-14.67c.79-8.84,4.96-16.98,11.47-23.01,8.96-8.29,14.43-20.26,14.06-33.42v-.02Z" fill="#000000"/><path class="cls-10" d="M271.9,152.55c-2.45-23.49-14.75-42.13-35.59-43.01-20.1-.85-39.96,23-37.83,45.73,1.22,12.99,4.2,19.75,13.09,28.06,6.25,5.84,12.6,11.48,14.35,19.92l2.91,14.01,11.79.69,1.99.12,11.79.69v-13.98c.01-8.42,2.94-15.92,8.05-21.21,7.01-7.27,10.77-18.34,9.45-31h0Z" fill="#000000"/><g class="cls-20"><path class="cls-17" d="M247.17,216.57c-2.29-8.81-1.27-18.01-.28-26.91.21-1.85.41-3.7.59-5.54.07-.75.12-1.52.17-2.3.05-.87.11-1.78.2-2.69-.17-.1-.35-.21-.51-.33-1.29-.93-2.18-2.24-2.97-3.51-.44-.7-.88-1.43-1.3-2.18,0,0-.01,0-.02.02-1.44,1.15-3.2,2.04-5.26,2.67.5,2.24.81,4.49,1.06,6.66.62,5.59.9,11.27.82,16.89-.07,4.63-.37,10.69-2.12,16.55l-2.06-.62c1.68-5.6,1.97-11.48,2.04-15.97.08-5.53-.19-11.12-.8-16.62-.23-2.08-.53-4.24-1-6.37-.3.06-.61.12-.93.17-2.37.4-4.26.38-5.94-.05-1.99-.51-3.89-1.67-5.64-3.45-1.9-1.93-2.99-3.95-3.22-6.03-.3-2.68,1.07-5.33,3.27-6.31,2.9-1.3,6.12.4,8.17,2.42,3,2.96,4.76,6.71,5.86,10.64,1.75-.55,3.24-1.31,4.44-2.27.13-.1.25-.2.37-.31-.28-.65-.54-1.31-.74-2-.54-1.8-.95-4.51.11-7.16.67-1.68,1.89-2.69,3.26-2.69,1.14.02,2.3.79,2.83,1.98.47,1.04.42,2.17.35,2.92-.27,2.74-1.42,5.34-3.22,7.38.47.89.98,1.74,1.5,2.57.61.98,1.23,1.91,2.02,2.6.32-1.57.85-3.11,1.76-4.46,1.07-1.59,2.65-2.82,4.46-3.46,1.05-.38,2.03-.49,2.91-.34,1.69.3,3.08,1.89,3.58,3.3.92,2.6-1.06,5.06-3.04,6.38-2.2,1.47-5.22,2.38-7.94,1.78-.06.67-.1,1.34-.14,2.01-.05.81-.1,1.6-.17,2.37-.18,1.85-.38,3.71-.59,5.58-.97,8.71-1.97,17.71.22,26.14l-2.08.54ZM250.19,177.8c2.14.57,4.65-.19,6.49-1.42,1.39-.93,2.68-2.54,2.21-3.88-.31-.89-1.21-1.78-1.93-1.9-.51-.09-1.12,0-1.81.24-1.38.5-2.58,1.43-3.4,2.65-.85,1.26-1.3,2.74-1.56,4.32ZM225.4,162.36c-.44,0-.87.08-1.27.26-1.34.6-2.21,2.37-2.01,4.11.18,1.58,1.06,3.19,2.61,4.76,1.48,1.49,3.04,2.46,4.65,2.88,1.38.36,2.98.36,5.04.01.26-.04.51-.09.76-.14-1.01-3.6-2.61-7.01-5.28-9.64-1.16-1.14-2.89-2.25-4.51-2.25ZM244.72,161.44h0c-.51,0-1.01.67-1.27,1.34-.65,1.62-.67,3.67-.05,5.75.08.29.18.57.28.85,1.15-1.58,1.89-3.47,2.08-5.39.08-.81.02-1.4-.17-1.84-.18-.41-.56-.71-.87-.71Z" fill="#000000"/></g><path class="cls-16" d="M226.38,215.05l31.74-.89.29,10.26c.13,4.77-3.63,8.75-8.4,8.89l-14.44.4c-4.77.13-8.75-3.63-8.89-8.4l-.29-10.26h0Z" fill="#000000"/></g><g id="Character_1"><path class="cls-16" d="M58.56,146.17c-2.19,3.04-.98,7.42,1.3,10.4.36.47.75.94.85,1.53.16,1.02-.64,1.91-1.34,2.67-3.64,3.94-6.19,9.48-4.8,14.66.96,3.61,3.75,6.9,3.25,10.6-.5,3.76-4.12,6.18-7.38,8.1,2.56,1.42,5.78,1.22,8.48.1s4.98-3.06,7.11-5.06c-.43,1.36-.86,2.72-1.28,4.09,1.45-3.05,5.44-3.85,7.8-6.28,1.08-1.11,1.77-2.53,2.36-3.95,2.96-7.2,3.51-15.14,3.85-22.92.09-2.12.16-4.28-.39-6.32-1.24-4.58-4.92-6.43-9.02-7.89-3.7-1.31-7.73-3.94-10.77.28Z" fill="#000000"/><circle class="cls-19" cx="78.8" cy="158.15" r="10.84" fill="#000000"/><path class="cls-19" d="M158.26,396.24s-12.39,9.99-37.16,13.58c-5.92.86-12.35.6-18.72-.29h-.01c-20.3-2.83-39.93-12.09-39.93-12.09,0,0,4.72-29.97,0-50.35-4.72-20.37-.07-40.15,0-43.75.08-3.59,12.71-34.16,12.71-34.16,0,0-5.19-21.97-12.71-28.76-2.23-2.02-4.83-5.47-7.28-9.42-5.79-9.36-10.73-21.56-7.78-24.3,4.2-3.89,36.11-2.99,36.11-2.99l49.59-.09s7.6,3.63,7.6,4.83-2.4,22.38-4.57,35.96c-.99,6.25-1.96,8.87-3.27,11.62-1.47,3.08-3.35,6.33-6.15,15.05-.13.42-.27.85-.41,1.3-5.61,17.98,31.98,123.86,31.98,123.86Z" fill="#000000"/><path class="cls-11" d="M132.88,255.92l-.04.11-6.15,15.05s-39.31-.75-40.77,5.58c-1.45,6.32,1.83,34.89,0,43.86-1.82,8.97,16.46,89.01,16.46,89.01h-.01c-20.3-2.83-39.93-12.09-39.93-12.09,0,0,4.72-29.97,0-50.35-4.72-20.37-.07-40.15,0-43.75.08-3.59,12.71-34.16,12.71-34.16,0,0-5.19-21.97-12.71-28.76-2.23-2.02-4.83-5.47-7.28-9.42l11.31-3s2.46,19.17,17.02,23.63c14.56,4.47,49.39,4.29,49.39,4.29Z" fill="#000000"/><path class="cls-6" d="M110.8,211.82s4.37,2.18,4.56,2.67,17.53,41.43,17.53,41.43l4.77-9.4-13.43-34.7-12.04-5.12-1.4,5.12Z" fill="#000000"/><path class="cls-3" d="M47.38,206.7l10.4,9.08-7.35,6.5s-5.44-7.76-3.05-15.58Z" fill="#000000"/><path class="cls-16" d="M129.38,159.82c1.4-1.08,2.71-2.31,3.93-3.6,1.46-1.55,4.22-3.78,4.35-6.02.08-1.35-.49-2.69-1.35-3.73-.23-.28-.49-.57-.55-.93-.07-.47.23-.9.49-1.3,1.64-2.58,1.73-5.99.46-8.77-2.01-4.42-7.45-6.95-12.13-5.64-.71.2-1.45.52-1.8,1.17-1.3-1.86-3.17-3.31-5.29-4.11-1.05-.4-2.21-.64-3.31-.39s-2.12,1.08-2.33,2.19c-.71-2.56-1.72-5.45-4.2-6.41-.84-.32-1.75-.38-2.64-.4-1.55-.04-3.1-.01-4.65.09-1.3.09-2.64.24-3.81.81-1.12.55-2.03,1.44-2.85,2.38-2.09,2.4-3.74,5.18-4.84,8.16-1.5-.61-3.29-.45-4.65.43-1.93,1.25-2.11,3.56-3.64,4.74-.78.6-2.42.9-3.42,1.65-1.29.97-2.45,2.2-3.52,3.4-.66.74-1.3,1.54-1.62,2.48-.36,1.07-.29,2.23-.16,3.35.22,2,.56,3.99,1.03,5.96.52,2.17,1.32,4.5,3.21,5.69-.5-.31-1.82,5.93-1.83,6.48-.07,2.34.7,4.47,1.1,6.73.68,3.89,1.39,7.92,5.91,9.09,6.19,1.6,12.77-3.86,12.77-3.86l35.36-19.61Z" fill="#000000"/><path class="cls-18" d="M109.56,187.68s-3.6,9.89,2.7,14.98c6.29,5.09-3.23,18.19-18.43,10.34-5.78-2.98-10.34-9.29-10.34-9.29,0,0,8.46-20.89,7.55-31.63-.91-10.74,18.52,15.6,18.52,15.6Z" fill="#000000"/><path class="cls-18" d="M92.29,173.51c.05,3.22.33,6.47.88,9.64.85,4.89,1.87,9.59,4.57,13.85.16.26.33.51.5.76,1.7,2.49,4.01,4.8,6.96,5.38.46.09.95.13,1.38-.03.5-.19.87-.64,1.11-1.12.78-1.54.45-3.32-.02-4.9-.41-1.36-.38-2.78-.48-4.21l-.28-4.05c-.02-.27.09-1.62-.12-1.81,0,0-14.51-13.5-14.51-13.5Z" fill="#000000"/><path class="cls-18" d="M126.04,151.27s2.55,33.11-9.14,37.16-19.18-1.35-22.17-8.39c-3-7.04-4.2-8.84-4.2-8.84,0,0,.3,2.44-3.45-.65s-5.99-8.04-3.3-9.09,6.29,1.05,6.29,1.05c0,0-.15-9.59,6.29-12.74,6.44-3.15,28.62-3.9,29.67,1.5Z" fill="#000000"/><path class="cls-18" d="M118.94,211.72c-3.14-.83-6.49-2.09-9.28-3.73-2.51-1.48-4.42-4.48-5.31-7.18-.14-.41-.26-.84-.47-1.22-.2-.36-.49-.67-.74-1-1.13-1.5-1.54-3.53-1.08-5.35.04-.15.08-.31.05-.46-.05-.23-.26-.38-.45-.51-.87-.62-1.65-1.36-2.31-2.2-.44-.56-.84-1.17-1.02-1.86s-.12-1.47.29-2.05c.1-.15.24-.29.42-.31.13-.02.26.03.38.08l4.6,1.88c1.31.53,2.63,1.24,4.03,1.48,2.71.46,5.4,1.59,8.17.76,2.31-.7,4.03-2.59,5.94-4.07,1.33.85,2.09,2.43,2.2,4,.08,1.09-.13,2.19-.07,3.29.05,1.03.34,2.04.69,3.02.86,2.39,2.08,4.61,3.12,6.92.7,1.57,1.01,3.43,2.09,4.75s2.22,2.81,3.32,4.23c3.6,4.65,7.13,9.36,10.54,14.15,3.67,5.17,7.28,10.43,10.37,15.97,1.14,2.04,2.23,4.13,3.04,6.33.49,1.32,1.05,2.91.75,4.34-2.65,12.63-13.27,9.6-18.16,5.7-4.89-3.9-21.08-46.98-21.08-46.98Z" fill="#000000"/><path class="cls-18" d="M66.86,229.63l-20.36,36.86,25.15,29.97s17.68,6.98,16.78,10.53-9.89-1.45-11.09,0,.3,9.45,4.89,13.34,1,5.19.5,4.99-6.19-1.5-6.19-1.5c0,0-1.4.9-4.99-1.1s-5.69-2.1-6.89-4-3-4.69-4-9.49-1.3-9.19-1.3-9.19c0,0-29.07-27.42-32.06-36.03-3-8.62,27.57-50.43,27.57-50.43,0,0,10.19,6.45,11.99,16.04Z" fill="#000000"/><path class="cls-18" d="M93.03,407.8l-2.64,39.61c-7.24-.37-14.41-.9-21.56-2.23v-45.02l24.2,7.64Z" fill="#000000"/><polygon class="cls-4" points="92.19 413.77 76.98 411.4 68.83 426.07 68.83 400.16 93.03 407.8 92.19 413.77" fill="#000000"/><path class="cls-18" d="M150.6,450.19c-4.73-.01-9.46-.07-14.18-.21-.15-.78-.26-1.57-.5-2.34-.27-.83-.49-1.69-.7-2.54-.83-3.25-1.54-6.54-2.25-9.82-.85-3.96-1.66-7.93-2.47-11.9-.67-3.34-1.33-6.69-1.99-10.03-.27-1.41-1.16-3.15-1.43-4.56,0,0,20.76-6.66,21.35-6.85-.03.12.05,1.04.05,1.1.1,2.37.2,4.73.29,7.1.16,3.68.31,7.36.46,11.04.16,3.99.33,7.97.49,11.96.13,3.27.27,6.54.4,9.81.05,1.05.09,2.1.13,3.15.04.85.46,2.82.35,4.09Z" fill="#000000"/><path class="cls-16" d="M110.12,156.17c-2.06,1-4.39,1.3-6.68,1.37-.37.01-.77.03-1.04.28-.22.21-.3.53-.37.83-.34,1.35-.99,2.69-2.14,3.48-1.18.81-2.71.93-4.14.79-3.56-.32-6.97-2.04-9.35-4.7-.18-.2-.36-.41-.43-.67-.11-.35,0-.73.1-1.08.69-2.43,1.38-4.86,2.07-7.29.47-1.66.96-3.36,1.95-4.78,1.06-1.51,2.63-2.6,4.26-3.47,4.14-2.23,8.98-3.3,13.6-2.45,3.36.62,7.79,3.34,8.14,7.11.39,4.22-2.18,8.75-5.97,10.59Z" fill="#000000"/><polygon class="cls-5" points="148.43 401.94 148.22 402.33 148.6 405.88 128.83 414.96 127.08 408.79 148.43 401.94" fill="#000000"/></g></svg>